<svg width="55" height="55" xmlns="http://www.w3.org/2000/svg">
 <style type="text/css">.st0{fill:#404041;}
	.st1{fill-rule:evenodd;clip-rule:evenodd;fill:#FFFFFF;}</style>

 <g>
  <title>Layer 1</title>
  <g id="svg_2"/>
  <g id="svg_4"/>
  <g id="svg_6"/>
  <g id="svg_8"/>
  <g id="svg_10"/>
  <g id="svg_12"/>
  <g id="svg_14"/>
  <g stroke="null" id="svg_1"/>
  <path stroke="null" class="st1" d="m13.87442,14.97918l13.62559,-13.62559l26.1464,26.1464l-9.45198,9.45198c-1.71854,-5.27838 -6.62867,-9.08373 -12.52081,-9.08373c-1.22753,0 -2.45506,0.12276 -3.55984,0.49101l8.83822,-8.83822c-5.03287,-2.82332 -11.41603,-2.0868 -15.71239,2.20956c-0.85927,0.85927 -1.59579,1.8413 -2.20956,2.94607l0,-12.52081c-1.96405,0.49101 -3.68259,1.47304 -5.15563,2.82332m-12.52081,12.52081l11.41603,-11.41603c-2.0868,2.33231 -3.31433,5.40113 -3.31433,8.71547c0,6.0149 4.05085,11.04777 9.57474,12.64357l0,0l0,0l0,0l24.67337,0l-16.2034,16.2034l-26.1464,-26.1464l-0.00001,-0.00001z" id="svg_16" fill="#ffffff"/>
  <path fill="#ffffff" stroke-width="0" stroke-dasharray="null" stroke-opacity="null" opacity="undefined" d="m326.8625,29.59521l0.56913,0l0.17587,-0.38197l0.17587,0.38197l0.56913,0l-0.46044,0.23607l0.17588,0.38197l-0.46044,-0.23607l-0.46044,0.23607l0.17588,-0.38197l-0.46044,-0.23607z" id="svg_19" stroke="#000"/>
 </g>
</svg>